<?xml version="1.0" encoding="utf-8"?>
<!-- Generator: Adobe Illustrator 22.1.0, SVG Export Plug-In . SVG Version: 6.00 Build 0)  -->
<svg version="1.1" id="Layer_1" xmlns="http://www.w3.org/2000/svg" xmlns:xlink="http://www.w3.org/1999/xlink" x="0px" y="0px"
	 viewBox="0 0 513.2 473" style="enable-background:new 0 0 513.2 473;" xml:space="preserve">
<style type="text/css">
	.st0{fill:url(#SVGID_1_);}
</style>
<linearGradient id="SVGID_1_" gradientUnits="userSpaceOnUse" x1="257.3244" y1="436.4356" x2="252.3354" y2="3.0282" gradientTransform="matrix(1 0 0 -1 0 474)">
	<stop  offset="1.285542e-02" style="stop-color:#ABABAB"/>
	<stop  offset="0.2243" style="stop-color:#DDDDDD"/>
	<stop  offset="0.3306" style="stop-color:#EBEBEB"/>
	<stop  offset="0.3636" style="stop-color:#F0F0F0"/>
	<stop  offset="0.4479" style="stop-color:#F9F9F9"/>
	<stop  offset="0.5295" style="stop-color:#F5F5F5"/>
	<stop  offset="0.6172" style="stop-color:#E8E8E8"/>
	<stop  offset="0.6359" style="stop-color:#E4E4E4"/>
	<stop  offset="0.7145" style="stop-color:#D2D2D2"/>
	<stop  offset="0.8135" style="stop-color:#B9B9B9"/>
	<stop  offset="0.8336" style="stop-color:#B3B3B3"/>
	<stop  offset="0.9176" style="stop-color:#9A9A9A"/>
	<stop  offset="1" style="stop-color:#808080"/>
</linearGradient>
<path class="st0" d="M513.1,181.2c0-4.6-0.7-9.2-1.1-13.8c-0.1-0.7-0.3-1.4-0.6-2.1c-1.7-4.5-3.5-9-5.2-13.5c-0.3-0.8,0-2-0.5-2.6
	c-5-6-6.2-13.6-8.7-20.6c-0.1-0.4-0.1-0.9-0.1-1.3c-0.1-2.3,0.2-4.8-0.6-6.9c-0.9-2.5-1.5-5.6-4.6-6.7c0.2-0.5,0.2-0.9,0.4-1.1
	c1.9-2.4,2.2-5,1.5-7.9c-0.4-1.7-0.6-3.6-0.1-5.2c0.7-2.6,1.9-4.9,1.9-7.7c0-1.8,1.1-3.6,1-5.3v-0.1c2.9,0.8,5.7,1.6,8.6,2.4
	c0-0.1,0.1-0.2,0.1-0.3c-2.9-0.9-5.8-1.7-8.7-2.6c-0.2-2.9,0.1-3.2,3.2-3.2c3.7,0,7.5,0,11.2,0c0-0.3,0-0.6,0-0.9
	c-4.7,0-9.5,0-13.9,0c0-2.5,0-4.6,0-6.8c0.1-3.6-0.1-6.9-2.4-10.1c-1.3-1.8-1.4-4.5-1.9-6.8c-0.1-0.6,0.6-1.4,1.1-1.9
	c3.1-3.1,4.4-6.7,3.7-11.1c-0.3-1.8-0.1-3.7,0.3-5.4c0.7-2.9,1.6-5.8,2.5-8.6c1.4-4.8,0.9-9.7,0.2-14.6c-0.6-4.1-1.4-8.3-2.6-12.3
	c-1.1-3.7-3.7-4.7-7.5-3.8c-1.1,0.3-2.1,0.7-3.1,1.1c-6.3,2.9-10.1,8.6-14.8,13.4c-3.6,3.8-7,7.8-10.5,11.6
	c-0.3,0.4-0.8,0.8-1.2,0.8c-2.6,0.1-5.3,0.2-7.9,0.1c-2.4,0-4.8-0.5-7.1-0.2c-4,0.4-7.9,1.3-11.9,1.9c-0.3,0-0.6-0.3-0.9-0.4
	c-0.7-0.3-1.4-0.8-2-0.7c-2.4,0.1-4.8,0.4-7.2,0.5c-4.4,0.2-8.7,0.5-13.1,0.5c-1.8,0-3.9-0.4-5.3-1.4c-2.9-2.2-5.3-5.1-8.1-7.5
	c-4.6-4.1-9-8.6-14.1-11.8c-5.1-3.1-7.9-1.4-8.6,2.8c-1.8,11.8,0,23.3,3.6,34.5c1.2,3.7,2.5,7.2,1.2,11.1c-0.5,1.5-0.8,3.1-1.2,4.7
	c-1.2,4.7-2.3,9.4-3.5,14.3c-4.9,0-9.2,0-13.5,0c0,0.1,0,0.3,0,0.4c4.4,0,8.9,0,13.3,0c0,4.9-0.2,5-4.7,6c-3.1,0.7-6.2,1.3-9.3,2
	c0,0.2,0.1,0.4,0.1,0.6c3.4-0.6,6.7-1.1,10-2c2.1-0.5,3.1,0.1,3.6,2.2c-5,1.2-10.1,2.4-15.1,3.6c0,0.2,0.1,0.4,0.2,0.6
	c4.1-0.9,8.2-1.8,12.2-2.7c1.1-0.3,2.4-1,2.9,0.8s-0.8,2.1-2,2.6c-3.7,1.3-7.4,2.7-11.1,4.1c-0.8,0.3-1.5,0.7-2.3,1.1
	c0.1,0.2,0.1,0.3,0.2,0.5c4.8-1.8,9.7-3.6,14.5-5.3c0.2,2.8,0.4,5.3,0.6,8.4c-2,1.7-4.5,4-7.1,6.3c0.1,0.2,0.3,0.3,0.4,0.5
	c2.2-1.9,4.3-3.7,6.9-5.9c0.2,1.5,0.3,2.5,0.4,3.6c0.1,0.1,0.2,0.2,0.2,0.2c0.1,0.1,0.3,0.2,0.3,0.4c0.5,3,2.4,4.7,5.2,5.7
	c0.6,0.2,1.1,1.5,1.1,2.3c-0.1,1.7-0.4,3.4-0.8,5c-0.6,2.2-1.3,4.4-2.2,6.6c-0.2,0.4-1.1,0.6-1.8,0.7c-0.8,0.2-1.6,0.3-2.5,0.4
	c-3,0.5-6.1,1.3-9.1,1.6c-4.3,0.5-8.5,0.7-12.8,1.1c-3.6,0.3-7.1,0.8-10.6,1.1c-4.1,0.3-8.1,0.3-12.2,0.8c-2.9,0.3-5.8,1.2-8.8,1.5
	c-11.4,0.8-23,0-34.3,2.2c-7.8,1.5-15.7,2.5-23.4,4.2c-9.8,2.2-19.4,4.8-29.1,7.2c-1.4,0.4-2.9,0.5-4.3,1
	c-5.3,1.5-10.6,2.8-15.7,4.8c-6.2,2.4-12.2,5.4-18.4,7.8c-3.7,1.4-7.8,1.9-11.6,3.1c-6.2,1.8-11.7,1-16.8-3.1c-4-3.2-8.3-6-12.5-9
	c-3-2.1-6.4-3.9-8.9-6.5c-4.9-5.2-9.4-10.7-13.8-16.3c-4.6-5.9-9.1-11.8-13.3-18c-4.1-6.1-7.8-12.4-11.6-18.7
	c-4.6-7.4-9.1-14.9-13.7-22.4c-4.9-8.1-10-16-16.4-23c-2.5-2.7-4.3-5.9-6.7-8.7c-1.9-2.2-4.1-4.4-6.5-6.1c-3.4-2.6-7.2-4.7-10.7-7.2
	c-2.9-2.1-5.5-4.5-8.3-6.7c-0.5-0.4-1.5-0.7-1.8-0.4c-2.1,1.9-4,0.4-5.8-0.4c-4.2-1.8-8.4-3.7-12.6-5.6c-0.1,0-0.2,0.2-0.7,0.5
	c1.1,1.4,2.3,2.7,3.9,4.6c-4.8-2-8.9-5-13.5-1C8.2,13.5,3.5,17-0.1,22c1.5,1.3,1.5,3.2,1.1,5.4s-2.4,4.3-0.1,6.9
	c1.3,1.4,1.4,3.8,2.2,5.8C4,42.3,4.6,44.7,6,46.4c3.7,4.4,7.7,8.5,11.6,12.8c0.5,0.6,0.8,1.3,1.4,1.8c1.8,1.7,3.5,3.6,5.7,4.9
	c1,0.6,3.4,0.4,4.1-0.4c2-2.3,3.8-4.8,5-7.6c1.6-3.7,1.7-7.8-0.1-12.4c1.5,0.7,2.5,0.9,3.1,1.4c5.6,4.6,10.7,9.6,14.9,15.6
	c4.5,6,9.2,12.1,13.3,18.5c2.4,3.8,4.3,8.1,5.9,12.4c2.1,5.8,4.7,11.3,7.9,16.5c3.3,5.5,6,11.3,9.2,16.8c4.8,8.3,9.8,16.6,14.9,24.8
	c2.8,4.5,6.1,8.6,9,13.1c3.4,5.2,6.4,10.6,9.8,15.8c1.2,1.9,3.6,3.3,4.2,5.3c1.5,4.5,6.8,7.2,5.9,12.7c0,0.2,0.6,0.5,0.6,0.8
	c0.2,0.9,0.4,1.8,0.3,2.7c0,1-0.3,2-0.5,3c-0.3,1.3-0.4,2.7-0.8,4c-0.9,2.4-1.9,4.8-2.9,7.2c-0.2,0.4,0,1-0.1,1.5
	c-0.1,1.2,0.1,2.5-0.3,3.6c-1.6,4.2-1.2,8.6-1.5,12.9c-0.2,2.6-0.4,5.2-0.5,7.9s-0.2,5.4,0.1,8c0.4,3.3,1.2,6.6,1.9,9.9
	c0.9,4.1,1.2,8.4,2.8,12.3c1.8,4.4,5.3,8,6.9,12.6c0.2,0.7,0.9,1.3,0.9,1.9c0.1,2.1,0.1,4.2-0.2,6.2c-0.4,2.2,0.8,3.5,1.9,5.1
	c1.3,2,2.6,4.2,3.1,6.5s0.8,4.5,2.3,6.4c0.8,1.1,1.7,2.6,0.5,3.2c0,2.1,0.1,3.6,0,5.2c-0.2,2.2-0.7,4.3-0.7,6.5c0,1.3,0.9,2.6,1.1,4
	c0.1,1.2,0.1,3.2-0.7,3.6c-3.6,2.4-3.3,6.3-4.3,9.7c-0.2,0.6-0.4,1.3-0.2,1.9c1,5.3,1.3,10.5,1,15.9c-0.1,2.6-0.1,5.2,0,7.8
	c0.4,4.8,1.2,9.6,1.3,14.4c0,5.9-0.6,11.9-1,17.8c-0.3,5.5-0.7,11-1,16.5c-0.2,3.3-0.2,6.7-0.1,10c0,1.3,0.5,2.7,0.6,4
	c0.5,4.9,0.7,9.8,1.5,14.6c0.8,4.8,2.7,9.3,6.4,12.6c4.4,3.8,9.4,6.1,15.5,5.5c2.6-0.3,5.3,0.1,8-0.1c5.3-0.4,10.6-1,15.9-1.5
	c2-0.2,3-1.5,3.1-3.2c0.1-1.8-0.2-3.6-0.5-5.3c-0.6-2.8-1.4-5.5-2-8.2c-0.8-3.8-2.5-5.7-6.3-6.6c-0.8-0.2-1.7-0.5-2.5-0.6
	c-2.4-0.6-3.4-2-3.6-4.6c-0.7-7.2-1.6-14.4-2.6-21.6c-0.6-4.5-1.2-9.1,0.6-13.4c0.9-2.3,2-4.6,3.4-6.5c2.4-3.2,5-6.4,8-9.2
	c1.9-1.7,4.6-2.6,6.9-3.9c0.7-0.4,1.1-1.2,1.8-1.7c3.6-2.4,7.1-4.8,10.8-7.1c1.5-0.9,3-1.7,4.7-2.3c3.4-1.1,6.9-2.1,10.4-3
	c1.6-0.4,3.3-0.4,5.1-0.6c0,1.8,0.1,3.1,0,4.4c-0.8,7,0.4,13.6,4.2,19.6c1.5,2.4,3.8,4.3,5.5,6.6c3.6,4.7,6.9,9.6,11.4,13.7
	c3.7,3.3,7,7,10.3,10.6c3,3.3,5.7,6.8,8.6,10.1c1.6,1.8,3.5,3.5,5.2,5.2c3.2,3.1,6.2,6.4,9.6,9.2c3.7,3.2,7.7,6.2,11.7,9.1
	c1.7,1.2,3.6,2.7,5.5,2.9c6.3,0.6,12.7,1.1,19,1c6.5-0.1,13.1,0.5,19.4-2c5.1-2,5.6-2.7,6.1-8c0.3-4.5-1.4-7.5-5.3-9.6
	c-2.5-1.3-4.9-3-7.5-4.2c-3.7-1.8-7.5-2.5-11.5-0.7c-4.9,2.1-7.5,1.2-10.7-3.3c-2.2-3.1-4.5-6-7-8.9c-3-3.4-6.7-6.4-9.4-10.1
	c-3-4.1-7.2-7.5-8-13.3c-0.5-3.8,0.1-7.4-0.3-11.1c0-0.2,0.2-0.4,0.3-0.6c1.8-2.6,3.5-5.2,5.4-7.6c2.5-3.2,5.2-6.4,7.8-9.5
	c4.4-5.4,8.9-10.8,13.3-16.3c0.2-0.2,0.4-0.5,0.6-0.5c2.9,0.6,2-1.7,2.4-3.2c0.5,0.3,0.9,0.6,1.4,0.9c0.1-0.5,0-1,0.3-1.3
	c1.2-1.4,2-2.9,4.3-3.5c1.7-0.5,2.3-3.6,4.9-3.9c0.6-0.1,1.5-0.6,1.8-0.3c2.2,1.9,1.9-0.2,2.2-2c1.5,3.3,1.6-0.2,2.7,0.2
	c1,0.3,2.2,0.4,3.2,0.2c0.8-0.2,1.6-1,2.4-1.5c2,1.9,3,1.8,3.5,0.2c1-0.1,1.7-0.1,2.4-0.3c2.1-0.6,3.5-2.5,6.3-2.2
	c3,0.4,6.1-1.1,9.1-1.2c4.6-0.1,9.2-2.1,13.7,0.4c0.2,0.1,0.6-0.1,0.8-0.2c1.7-1.6,2.6,0.1,3.3,1c2.2,2.7,0.2,7,3.5,9.4
	c0.7,0.5,0.6,1.8,1.2,2.7c1.3,2,3.4,3.9,3.9,6.1c0.4,2,1.2,3.9,1.6,5.9c0.9,4.3,3,8.4,4.5,12.7c0.2,0.4-0.2,1-0.4,1.7
	c1.6,0.3,2.6,0.5,2.3,2.8c-0.3,2.3,0.1,5.1,1.2,7.1c1.5,2.7,2,6.5,5.6,7.8c0.1,0,0.1,0.5,0.2,0.7c1.2,3,2.6,6,3.7,9.1
	c1.1,2.9,2.3,5.9,2.6,9c0.3,3.1-0.6,6.1,0.7,9.4c1.4,3.7,1.3,8,1.9,12c0.9,5.4,1.8,10.9,3,16.2c1.1,4.9,2,10.2,8.6,11.3
	c1.1,0.2,2.2,2.1,2.8,3.4c0.9,2,1.4,4.2,2.1,6.3c0.9,3,2.8,4.8,5.9,4.9c9.3,0.1,18.5-0.1,27.8,0.1c3.7,0.1,5.8-2.2,8.4-4.2
	c3.4-2.6,3-5.6,1.8-9c-0.1-0.3,0-0.7-0.1-1c-1-3.7-1.7-7.5-5.6-9.5c-0.7-0.4-1.1-1.6-1.5-2.5c-1.3-2.9-1.9-6.4-4-8.7
	c-4.8-5.2-5.1-12-7.7-18c-0.4-0.8-0.5-1.8-0.7-2.7c-0.9-4.6-1.7-9.2-2.6-13.8c-0.3-1.6-1.1-3.3-0.7-4.8c0.9-3.9,2.2-7.6,3.4-11.4
	c0.5-1.5,1.3-3,1.7-4.5c1.1-4,1.9-8.1,3.2-12c1.8-5.4,4-10.8,6-16.1c0.5-1.3,0.8-2.7,1.3-4c1.2-3.4,2.6-6.7,3.6-10.1
	c1-3.5,1.7-7.1,2.6-10.7c0.2-0.7,0.5-1.5,0.5-2.2c0.2-2.5,0-5,1.4-7.3c0.4-0.8-0.1-2,0.2-3c0.7-2.5,0.4-5.5,3.2-7.1
	c1.4-0.8,2.2-1.8,2.2-3.6c0-1.1,0.9-2.3,1.5-3.4c0.5-0.8,1.2-1.4,1.6-2.2c1-2.5,1.9-5.1,2.9-7.6c0.7-1.8,2.2-3.1,2.7-5.3
	c0.5-2.4,0.5-5.7,3.7-6.9c0.4-0.2,0.5-1.2,0.7-1.8c0.5-1.4,1-2.8,1.6-4.2c0.2-0.6,0.6-1.1,0.7-1.7c0.5-3.2,0.9-6.6,2.8-9.2
	c1.3-1.8,2.4-3.4,2.6-5.6c0.1-1,0-2,0.1-2.9c0.6-2.8,1.2-5.5,1.9-8.2c1.1-4.3,2.2-8.7,3.5-13c1-3.4,2.4-6.7,3.4-10.1
	c0.5-1.6,0.1-3.4,0.7-4.9c1.5-3.7,1.2-7.9,3.7-11.4c1.3-1.8,1.7-4.3,2-6.6c0.7-4.9,2-9.6,2-14.6
	C513.2,185.1,513.1,183.1,513.1,181.2z"/>
</svg>
